<svg xmlns="http://www.w3.org/2000/svg" width="960" height="540" viewBox="0 0 960 540">
  <defs>
    <linearGradient id="sky" x1="0" y1="0" x2="0" y2="1">
      <stop offset="0%" stop-color="#98e7ff"/>
      <stop offset="52%" stop-color="#e8fbff"/>
      <stop offset="53%" stop-color="#ffe3a7"/>
      <stop offset="100%" stop-color="#f7c56d"/>
    </linearGradient>
    <linearGradient id="sea" x1="0" y1="120" x2="0" y2="270">
      <stop offset="0%" stop-color="#58cef1"/>
      <stop offset="100%" stop-color="#2fb0df"/>
    </linearGradient>
    <filter id="soft" x="-20%" y="-20%" width="140%" height="140%">
      <feGaussianBlur stdDeviation="4"/>
    </filter>
  </defs>

  <rect width="960" height="540" fill="url(#sky)"/>
  <circle cx="88" cy="76" r="42" fill="#fff2a6"/>
  <circle cx="88" cy="76" r="56" fill="#fff2a6" opacity="0.25"/>

  <path d="M0 150 C120 126 210 171 328 145 C441 119 544 168 670 143 C780 121 852 151 960 132 L960 280 L0 280 Z" fill="url(#sea)" opacity="0.88"/>
  <path d="M0 181 C95 162 185 198 274 177 C365 156 458 196 552 175 C651 151 736 196 833 174 C884 162 923 162 960 168" fill="none" stroke="#ffffff" stroke-width="7" opacity="0.65" stroke-linecap="round"/>
  <path d="M0 225 C115 205 225 240 338 218 C455 195 580 246 692 219 C802 193 882 223 960 211" fill="none" stroke="#ffffff" stroke-width="6" opacity="0.50" stroke-linecap="round"/>

  <path d="M0 292 C130 270 260 315 390 292 C535 266 675 318 810 290 C882 276 925 279 960 285 L960 540 L0 540 Z" fill="#ffd684"/>
  <path d="M0 316 C140 292 275 333 418 310 C550 288 706 331 843 309 C902 300 938 301 960 305" fill="none" stroke="#fff0c7" stroke-width="8" opacity="0.95" stroke-linecap="round"/>

  <circle cx="148" cy="88" r="14" fill="#ffffff" opacity="0.8"/>
  <circle cx="180" cy="82" r="22" fill="#ffffff" opacity="0.8"/>
  <circle cx="212" cy="91" r="13" fill="#ffffff" opacity="0.8"/>
  <circle cx="730" cy="84" r="15" fill="#ffffff" opacity="0.72"/>
  <circle cx="764" cy="78" r="24" fill="#ffffff" opacity="0.72"/>
  <circle cx="798" cy="87" r="16" fill="#ffffff" opacity="0.72"/>

  <ellipse cx="210" cy="470" rx="92" ry="18" fill="#d79c53" opacity="0.22" filter="url(#soft)"/>
  <ellipse cx="755" cy="455" rx="104" ry="20" fill="#d79c53" opacity="0.20" filter="url(#soft)"/>
</svg>
