<svg xmlns="http://www.w3.org/2000/svg" width="120" height="170" viewBox="0 0 120 170">
  <defs>
    <linearGradient id="dress" x1="0" y1="62" x2="0" y2="145">
      <stop offset="0%" stop-color="#9c8cff"/>
      <stop offset="100%" stop-color="#6255d9"/>
    </linearGradient>
    <linearGradient id="hair" x1="0" y1="0" x2="1" y2="1">
      <stop offset="0%" stop-color="#7b4a2e"/>
      <stop offset="100%" stop-color="#3f2418"/>
    </linearGradient>
  </defs>

  <ellipse cx="62" cy="158" rx="34" ry="8" fill="#9a7138" opacity="0.22"/>

  <path d="M39 70 C20 91 17 121 30 144" stroke="#ffd0b1" stroke-width="13" stroke-linecap="round" fill="none"/>
  <path d="M82 71 C101 91 103 120 90 144" stroke="#ffd0b1" stroke-width="13" stroke-linecap="round" fill="none"/>

  <path d="M44 78 C52 66 72 66 80 78 L96 145 L28 145 Z" fill="url(#dress)"/>
  <circle cx="46" cy="145" r="7" fill="#ffd0b1"/>
  <circle cx="78" cy="145" r="7" fill="#ffd0b1"/>

  <path d="M47 139 L43 160" stroke="#ffd0b1" stroke-width="9" stroke-linecap="round"/>
  <path d="M75 139 L80 160" stroke="#ffd0b1" stroke-width="9" stroke-linecap="round"/>

  <path d="M44 30 C28 43 28 75 42 88 C49 96 74 96 84 86 C99 71 94 39 78 29 C68 21 53 22 44 30 Z" fill="url(#hair)"/>
  <circle cx="62" cy="54" r="30" fill="#ffd0b1"/>
  <path d="M34 52 C40 30 72 21 92 46 C76 38 53 39 34 52 Z" fill="url(#hair)"/>
  <circle cx="51" cy="58" r="3.6" fill="#263238"/>
  <circle cx="73" cy="58" r="3.6" fill="#263238"/>
  <path d="M53 73 C59 79 68 79 74 73" fill="none" stroke="#bd5b64" stroke-width="3" stroke-linecap="round"/>
  <circle cx="40" cy="64" r="4" fill="#ffadba" opacity="0.65"/>
  <circle cx="84" cy="64" r="4" fill="#ffadba" opacity="0.65"/>
  <path d="M31 44 C19 61 22 94 38 107" fill="none" stroke="#4b2b1d" stroke-width="12" stroke-linecap="round"/>
  <path d="M91 44 C106 60 101 95 86 108" fill="none" stroke="#4b2b1d" stroke-width="12" stroke-linecap="round"/>

  <circle cx="84" cy="31" r="9" fill="#ff8ab3"/>
  <circle cx="96" cy="31" r="9" fill="#ff8ab3"/>
  <circle cx="90" cy="37" r="7" fill="#ffb36f"/>
</svg>
